<mxfile host="app.diagrams.net" agent="Mozilla/5.0 (Windows NT 10.0; Win64; x64) AppleWebKit/537.36 (KHTML, like Gecko) Chrome/134.0.0.0 Safari/537.36" version="26.2.1">
  <diagram name="Page-1" id="hTucLAqfA2PRLuSBzvxu">
    <mxGraphModel dx="659" dy="418" grid="1" gridSize="10" guides="1" tooltips="1" connect="1" arrows="1" fold="1" page="1" pageScale="1" pageWidth="850" pageHeight="1100" math="0" shadow="0">
      <root>
        <mxCell id="0" />
        <mxCell id="1" parent="0" />
        <mxCell id="n4HXjeGm8iwe5gWVl-Hj-15" style="edgeStyle=orthogonalEdgeStyle;rounded=0;orthogonalLoop=1;jettySize=auto;html=1;exitX=1;exitY=0.5;exitDx=0;exitDy=0;" edge="1" parent="1" source="n4HXjeGm8iwe5gWVl-Hj-1" target="n4HXjeGm8iwe5gWVl-Hj-6">
          <mxGeometry relative="1" as="geometry" />
        </mxCell>
        <mxCell id="n4HXjeGm8iwe5gWVl-Hj-1" value="user login" style="rounded=1;whiteSpace=wrap;html=1;" vertex="1" parent="1">
          <mxGeometry x="273" y="120.5" width="100" height="39" as="geometry" />
        </mxCell>
        <mxCell id="n4HXjeGm8iwe5gWVl-Hj-2" value="user" style="rounded=0;whiteSpace=wrap;html=1;" vertex="1" parent="1">
          <mxGeometry x="80" y="125" width="100" height="30" as="geometry" />
        </mxCell>
        <mxCell id="n4HXjeGm8iwe5gWVl-Hj-4" value="" style="endArrow=none;html=1;rounded=0;exitX=0;exitY=0.25;exitDx=0;exitDy=0;entryX=1;entryY=0.348;entryDx=0;entryDy=0;entryPerimeter=0;" edge="1" parent="1">
          <mxGeometry width="50" height="50" relative="1" as="geometry">
            <mxPoint x="273" y="133.25" as="sourcePoint" />
            <mxPoint x="373" y="133.44" as="targetPoint" />
          </mxGeometry>
        </mxCell>
        <mxCell id="n4HXjeGm8iwe5gWVl-Hj-20" style="edgeStyle=orthogonalEdgeStyle;rounded=0;orthogonalLoop=1;jettySize=auto;html=1;exitX=0.5;exitY=1;exitDx=0;exitDy=0;" edge="1" parent="1" source="n4HXjeGm8iwe5gWVl-Hj-6" target="n4HXjeGm8iwe5gWVl-Hj-11">
          <mxGeometry relative="1" as="geometry" />
        </mxCell>
        <mxCell id="n4HXjeGm8iwe5gWVl-Hj-6" value="product" style="rounded=0;whiteSpace=wrap;html=1;" vertex="1" parent="1">
          <mxGeometry x="440" y="125" width="100" height="30" as="geometry" />
        </mxCell>
        <mxCell id="n4HXjeGm8iwe5gWVl-Hj-7" style="edgeStyle=orthogonalEdgeStyle;rounded=0;orthogonalLoop=1;jettySize=auto;html=1;exitX=0.5;exitY=1;exitDx=0;exitDy=0;" edge="1" parent="1" source="n4HXjeGm8iwe5gWVl-Hj-2" target="n4HXjeGm8iwe5gWVl-Hj-2">
          <mxGeometry relative="1" as="geometry" />
        </mxCell>
        <mxCell id="n4HXjeGm8iwe5gWVl-Hj-10" value="&lt;span style=&quot;white-space: pre;&quot;&gt;&#x9;&lt;/span&gt;&amp;nbsp;orders" style="html=1;dashed=0;whiteSpace=wrap;shape=mxgraph.dfd.dataStoreID;align=left;spacingLeft=3;points=[[0,0],[0.5,0],[1,0],[0,0.5],[1,0.5],[0,1],[0.5,1],[1,1]];" vertex="1" parent="1">
          <mxGeometry x="440" y="310" width="100" height="30" as="geometry" />
        </mxCell>
        <mxCell id="n4HXjeGm8iwe5gWVl-Hj-21" style="edgeStyle=orthogonalEdgeStyle;rounded=0;orthogonalLoop=1;jettySize=auto;html=1;exitX=0.5;exitY=1;exitDx=0;exitDy=0;" edge="1" parent="1" source="n4HXjeGm8iwe5gWVl-Hj-11" target="n4HXjeGm8iwe5gWVl-Hj-10">
          <mxGeometry relative="1" as="geometry" />
        </mxCell>
        <mxCell id="n4HXjeGm8iwe5gWVl-Hj-11" value="add to cart/order" style="rounded=1;whiteSpace=wrap;html=1;" vertex="1" parent="1">
          <mxGeometry x="440" y="210" width="100" height="40" as="geometry" />
        </mxCell>
        <mxCell id="n4HXjeGm8iwe5gWVl-Hj-12" value="" style="endArrow=none;html=1;rounded=0;exitX=0;exitY=0.25;exitDx=0;exitDy=0;entryX=1;entryY=0.348;entryDx=0;entryDy=0;entryPerimeter=0;" edge="1" parent="1">
          <mxGeometry width="50" height="50" relative="1" as="geometry">
            <mxPoint x="440" y="222" as="sourcePoint" />
            <mxPoint x="540" y="222.19" as="targetPoint" />
          </mxGeometry>
        </mxCell>
        <mxCell id="n4HXjeGm8iwe5gWVl-Hj-14" style="edgeStyle=orthogonalEdgeStyle;rounded=0;orthogonalLoop=1;jettySize=auto;html=1;exitX=1;exitY=0.5;exitDx=0;exitDy=0;" edge="1" parent="1" source="n4HXjeGm8iwe5gWVl-Hj-2" target="n4HXjeGm8iwe5gWVl-Hj-1">
          <mxGeometry relative="1" as="geometry" />
        </mxCell>
        <mxCell id="n4HXjeGm8iwe5gWVl-Hj-22" value="models" style="text;strokeColor=none;align=center;fillColor=none;html=1;verticalAlign=middle;whiteSpace=wrap;rounded=0;" vertex="1" parent="1">
          <mxGeometry x="484" y="170" width="60" height="30" as="geometry" />
        </mxCell>
        <mxCell id="n4HXjeGm8iwe5gWVl-Hj-23" value="email, pwd" style="text;strokeColor=none;align=center;fillColor=none;html=1;verticalAlign=middle;whiteSpace=wrap;rounded=0;" vertex="1" parent="1">
          <mxGeometry x="196" y="114" width="60" height="30" as="geometry" />
        </mxCell>
        <mxCell id="n4HXjeGm8iwe5gWVl-Hj-24" value="order details" style="text;strokeColor=none;align=center;fillColor=none;html=1;verticalAlign=middle;whiteSpace=wrap;rounded=0;" vertex="1" parent="1">
          <mxGeometry x="492" y="264" width="70" height="30" as="geometry" />
        </mxCell>
        <mxCell id="n4HXjeGm8iwe5gWVl-Hj-25" value="visit" style="text;strokeColor=none;align=center;fillColor=none;html=1;verticalAlign=middle;whiteSpace=wrap;rounded=0;" vertex="1" parent="1">
          <mxGeometry x="373" y="110" width="60" height="30" as="geometry" />
        </mxCell>
      </root>
    </mxGraphModel>
  </diagram>
</mxfile>
